<mxfile host="app.diagrams.net" modified="2023-05-02T21:21:15.196Z" agent="Mozilla/5.0 (Windows NT 10.0; Win64; x64) AppleWebKit/537.36 (KHTML, like Gecko) Chrome/112.0.0.0 Safari/537.36" etag="NRnqVoH6yGGsetOOUr5V" version="21.2.3" type="device">
  <diagram name="Page-1" id="r4WGaEUizMwvhJHnDkzM">
    <mxGraphModel dx="1290" dy="587" grid="1" gridSize="10" guides="1" tooltips="1" connect="1" arrows="1" fold="1" page="1" pageScale="1" pageWidth="850" pageHeight="1100" math="0" shadow="0">
      <root>
        <mxCell id="0" />
        <mxCell id="1" parent="0" />
        <mxCell id="HFipdFdvyYhQn3uxad7q-7" style="rounded=0;orthogonalLoop=1;jettySize=auto;html=1;exitX=0.5;exitY=1;exitDx=0;exitDy=0;entryX=0.5;entryY=0;entryDx=0;entryDy=0;" edge="1" parent="1" source="HFipdFdvyYhQn3uxad7q-1" target="HFipdFdvyYhQn3uxad7q-3">
          <mxGeometry relative="1" as="geometry" />
        </mxCell>
        <mxCell id="HFipdFdvyYhQn3uxad7q-8" style="rounded=0;orthogonalLoop=1;jettySize=auto;html=1;exitX=0.5;exitY=1;exitDx=0;exitDy=0;entryX=0.5;entryY=0;entryDx=0;entryDy=0;" edge="1" parent="1" source="HFipdFdvyYhQn3uxad7q-1" target="HFipdFdvyYhQn3uxad7q-2">
          <mxGeometry relative="1" as="geometry" />
        </mxCell>
        <mxCell id="HFipdFdvyYhQn3uxad7q-1" value="S" style="ellipse;whiteSpace=wrap;html=1;" vertex="1" parent="1">
          <mxGeometry x="360" y="40" width="120" height="80" as="geometry" />
        </mxCell>
        <mxCell id="HFipdFdvyYhQn3uxad7q-9" value="" style="rounded=0;orthogonalLoop=1;jettySize=auto;html=1;" edge="1" parent="1" source="HFipdFdvyYhQn3uxad7q-2" target="HFipdFdvyYhQn3uxad7q-4">
          <mxGeometry relative="1" as="geometry" />
        </mxCell>
        <mxCell id="HFipdFdvyYhQn3uxad7q-10" style="rounded=0;orthogonalLoop=1;jettySize=auto;html=1;exitX=0.5;exitY=1;exitDx=0;exitDy=0;entryX=0.5;entryY=0;entryDx=0;entryDy=0;" edge="1" parent="1" source="HFipdFdvyYhQn3uxad7q-2" target="HFipdFdvyYhQn3uxad7q-5">
          <mxGeometry relative="1" as="geometry" />
        </mxCell>
        <mxCell id="HFipdFdvyYhQn3uxad7q-2" value="A" style="ellipse;whiteSpace=wrap;html=1;" vertex="1" parent="1">
          <mxGeometry x="280" y="160" width="120" height="80" as="geometry" />
        </mxCell>
        <mxCell id="HFipdFdvyYhQn3uxad7q-3" value="11" style="ellipse;whiteSpace=wrap;html=1;" vertex="1" parent="1">
          <mxGeometry x="440" y="160" width="120" height="80" as="geometry" />
        </mxCell>
        <mxCell id="HFipdFdvyYhQn3uxad7q-4" value="0" style="ellipse;whiteSpace=wrap;html=1;" vertex="1" parent="1">
          <mxGeometry x="280" y="280" width="120" height="80" as="geometry" />
        </mxCell>
        <mxCell id="HFipdFdvyYhQn3uxad7q-11" value="" style="edgeStyle=orthogonalEdgeStyle;rounded=0;orthogonalLoop=1;jettySize=auto;html=1;" edge="1" parent="1" source="HFipdFdvyYhQn3uxad7q-5" target="HFipdFdvyYhQn3uxad7q-6">
          <mxGeometry relative="1" as="geometry" />
        </mxCell>
        <mxCell id="HFipdFdvyYhQn3uxad7q-5" value="A" style="ellipse;whiteSpace=wrap;html=1;" vertex="1" parent="1">
          <mxGeometry x="120" y="280" width="120" height="80" as="geometry" />
        </mxCell>
        <mxCell id="HFipdFdvyYhQn3uxad7q-6" value="1" style="ellipse;whiteSpace=wrap;html=1;" vertex="1" parent="1">
          <mxGeometry x="120" y="400" width="120" height="80" as="geometry" />
        </mxCell>
      </root>
    </mxGraphModel>
  </diagram>
</mxfile>
